<svg xmlns="http://www.w3.org/2000/svg" viewBox="0 0 600 900" preserveAspectRatio="xMidYMid slice"><g fill="#ffffff" stroke="#a9d2f2" stroke-width="1" fill-opacity="0.4" stroke-opacity="0.32"><circle cx="46" cy="80" r="7"/><circle cx="59" cy="81" r="6"/><circle cx="70" cy="80" r="6"/><circle cx="82" cy="79" r="5"/><circle cx="96" cy="81" r="5"/><circle cx="108" cy="79" r="7"/><circle cx="121" cy="80" r="6"/><circle cx="133" cy="80" r="5"/><circle cx="56" cy="87" r="6"/><circle cx="70" cy="89" r="6"/><circle cx="82" cy="89" r="6"/><circle cx="95" cy="88" r="5"/><circle cx="107" cy="88" r="5"/><circle cx="120" cy="88" r="6"/><circle cx="132" cy="87" r="5"/><circle cx="58" cy="98" r="7"/><circle cx="69" cy="95" r="5"/><circle cx="82" cy="98" r="5"/><circle cx="96" cy="98" r="7"/><circle cx="108" cy="97" r="6"/><circle cx="122" cy="96" r="5"/><circle cx="68" cy="104" r="7"/><circle cx="87" cy="104" r="6"/><circle cx="104" cy="104" r="7"/><circle cx="121" cy="105" r="6"/><circle cx="70" cy="113" r="6"/><circle cx="89" cy="114" r="7"/><circle cx="109" cy="113" r="6"/><circle cx="83" cy="124" r="6"/><circle cx="110" cy="122" r="6"/><circle cx="89" cy="133" r="5"/><circle cx="239" cy="58" r="7"/><circle cx="251" cy="60" r="6"/><circle cx="265" cy="59" r="5"/><circle cx="274" cy="60" r="6"/><circle cx="286" cy="59" r="7"/><circle cx="298" cy="60" r="6"/><circle cx="313" cy="59" r="6"/><circle cx="322" cy="59" r="6"/><circle cx="336" cy="58" r="6"/><circle cx="347" cy="59" r="7"/><circle cx="359" cy="59" r="5"/><circle cx="251" cy="68" r="6"/><circle cx="263" cy="69" r="6"/><circle cx="275" cy="69" r="7"/><circle cx="286" cy="67" r="5"/><circle cx="297" cy="68" r="5"/><circle cx="309" cy="69" r="6"/><circle cx="323" cy="67" r="7"/><circle cx="333" cy="67" r="6"/><circle cx="344" cy="68" r="6"/><circle cx="355" cy="67" r="7"/><circle cx="256" cy="77" r="6"/><circle cx="268" cy="78" r="7"/><circle cx="282" cy="78" r="5"/><circle cx="291" cy="77" r="7"/><circle cx="304" cy="76" r="6"/><circle cx="321" cy="76" r="6"/><circle cx="333" cy="78" r="6"/><circle cx="346" cy="78" r="6"/><circle cx="265" cy="86" r="5"/><circle cx="281" cy="85" r="5"/><circle cx="293" cy="86" r="7"/><circle cx="304" cy="84" r="5"/><circle cx="316" cy="86" r="6"/><circle cx="332" cy="86" r="7"/><circle cx="345" cy="86" r="7"/><circle cx="268" cy="95" r="5"/><circle cx="281" cy="94" r="6"/><circle cx="294" cy="94" r="6"/><circle cx="308" cy="93" r="7"/><circle cx="317" cy="93" r="6"/><circle cx="329" cy="95" r="6"/><circle cx="281" cy="103" r="7"/><circle cx="296" cy="102" r="7"/><circle cx="313" cy="102" r="7"/><circle cx="330" cy="104" r="6"/><circle cx="284" cy="111" r="6"/><circle cx="298" cy="111" r="6"/><circle cx="318" cy="113" r="5"/><circle cx="296" cy="120" r="6"/><circle cx="314" cy="120" r="6"/><circle cx="470" cy="94" r="7"/><circle cx="482" cy="95" r="7"/><circle cx="492" cy="95" r="6"/><circle cx="507" cy="93" r="6"/><circle cx="518" cy="94" r="5"/><circle cx="531" cy="94" r="6"/><circle cx="540" cy="95" r="6"/><circle cx="556" cy="95" r="5"/><circle cx="479" cy="104" r="6"/><circle cx="494" cy="104" r="6"/><circle cx="506" cy="102" r="5"/><circle cx="518" cy="103" r="5"/><circle cx="528" cy="103" r="6"/><circle cx="542" cy="105" r="6"/><circle cx="553" cy="104" r="6"/><circle cx="479" cy="113" r="7"/><circle cx="491" cy="112" r="5"/><circle cx="505" cy="112" r="6"/><circle cx="518" cy="112" r="6"/><circle cx="529" cy="113" r="5"/><circle cx="542" cy="113" r="5"/><circle cx="493" cy="121" r="6"/><circle cx="507" cy="121" r="5"/><circle cx="524" cy="119" r="7"/><circle cx="541" cy="120" r="6"/><circle cx="492" cy="128" r="5"/><circle cx="511" cy="128" r="6"/><circle cx="532" cy="131" r="7"/><circle cx="502" cy="138" r="7"/><circle cx="532" cy="138" r="5"/><circle cx="513" cy="147" r="6"/><circle cx="147" cy="355" r="5"/><circle cx="155" cy="355" r="5"/><circle cx="164" cy="354" r="5"/><circle cx="174" cy="354" r="5"/><circle cx="185" cy="354" r="4"/><circle cx="194" cy="355" r="4"/><circle cx="204" cy="353" r="6"/><circle cx="214" cy="356" r="4"/><circle cx="223" cy="355" r="4"/><circle cx="158" cy="362" r="6"/><circle cx="166" cy="362" r="5"/><circle cx="177" cy="363" r="6"/><circle cx="189" cy="361" r="6"/><circle cx="200" cy="363" r="5"/><circle cx="211" cy="363" r="4"/><circle cx="220" cy="361" r="5"/><circle cx="158" cy="369" r="6"/><circle cx="167" cy="370" r="4"/><circle cx="180" cy="369" r="5"/><circle cx="190" cy="370" r="4"/><circle cx="200" cy="369" r="5"/><circle cx="211" cy="370" r="5"/><circle cx="169" cy="377" r="5"/><circle cx="181" cy="377" r="5"/><circle cx="197" cy="376" r="5"/><circle cx="210" cy="375" r="5"/><circle cx="172" cy="383" r="5"/><circle cx="183" cy="382" r="6"/><circle cx="197" cy="384" r="6"/><circle cx="189" cy="391" r="5"/><circle cx="389" cy="335" r="5"/><circle cx="400" cy="335" r="6"/><circle cx="416" cy="336" r="5"/><circle cx="428" cy="335" r="6"/><circle cx="440" cy="335" r="6"/><circle cx="453" cy="334" r="5"/><circle cx="463" cy="335" r="7"/><circle cx="476" cy="334" r="6"/><circle cx="488" cy="333" r="6"/><circle cx="403" cy="342" r="5"/><circle cx="412" cy="344" r="5"/><circle cx="427" cy="343" r="7"/><circle cx="438" cy="343" r="6"/><circle cx="451" cy="342" r="5"/><circle cx="465" cy="342" r="7"/><circle cx="475" cy="343" r="6"/><circle cx="488" cy="342" r="5"/><circle cx="402" cy="351" r="7"/><circle cx="416" cy="351" r="6"/><circle cx="429" cy="351" r="5"/><circle cx="441" cy="353" r="7"/><circle cx="450" cy="351" r="6"/><circle cx="465" cy="353" r="7"/><circle cx="475" cy="351" r="6"/><circle cx="414" cy="359" r="6"/><circle cx="432" cy="362" r="5"/><circle cx="443" cy="362" r="6"/><circle cx="459" cy="361" r="6"/><circle cx="474" cy="360" r="7"/><circle cx="417" cy="370" r="7"/><circle cx="434" cy="368" r="5"/><circle cx="448" cy="369" r="7"/><circle cx="462" cy="370" r="7"/><circle cx="427" cy="377" r="6"/><circle cx="446" cy="378" r="7"/><circle cx="462" cy="378" r="5"/><circle cx="440" cy="388" r="5"/><circle cx="246" cy="555" r="5"/><circle cx="257" cy="556" r="7"/><circle cx="269" cy="554" r="7"/><circle cx="282" cy="555" r="7"/><circle cx="295" cy="554" r="7"/><circle cx="306" cy="554" r="6"/><circle cx="317" cy="554" r="6"/><circle cx="330" cy="555" r="5"/><circle cx="339" cy="554" r="5"/><circle cx="354" cy="554" r="7"/><circle cx="256" cy="563" r="7"/><circle cx="268" cy="565" r="6"/><circle cx="279" cy="564" r="7"/><circle cx="294" cy="562" r="6"/><circle cx="303" cy="562" r="7"/><circle cx="315" cy="565" r="6"/><circle cx="328" cy="562" r="7"/><circle cx="339" cy="562" r="5"/><circle cx="351" cy="562" r="6"/><circle cx="260" cy="572" r="7"/><circle cx="274" cy="572" r="7"/><circle cx="286" cy="573" r="6"/><circle cx="301" cy="573" r="6"/><circle cx="313" cy="572" r="6"/><circle cx="327" cy="572" r="6"/><circle cx="338" cy="572" r="6"/><circle cx="273" cy="581" r="6"/><circle cx="287" cy="581" r="6"/><circle cx="300" cy="579" r="5"/><circle cx="309" cy="580" r="5"/><circle cx="324" cy="579" r="6"/><circle cx="335" cy="579" r="6"/><circle cx="275" cy="590" r="6"/><circle cx="291" cy="589" r="6"/><circle cx="307" cy="590" r="5"/><circle cx="325" cy="589" r="6"/><circle cx="287" cy="599" r="7"/><circle cx="306" cy="598" r="6"/><circle cx="321" cy="599" r="6"/><circle cx="299" cy="606" r="5"/><circle cx="74" cy="639" r="4"/><circle cx="84" cy="640" r="6"/><circle cx="94" cy="640" r="4"/><circle cx="104" cy="641" r="4"/><circle cx="115" cy="639" r="5"/><circle cx="124" cy="639" r="5"/><circle cx="135" cy="639" r="4"/><circle cx="144" cy="639" r="5"/><circle cx="84" cy="648" r="5"/><circle cx="96" cy="646" r="5"/><circle cx="106" cy="648" r="4"/><circle cx="119" cy="646" r="6"/><circle cx="132" cy="647" r="5"/><circle cx="144" cy="647" r="5"/><circle cx="85" cy="655" r="5"/><circle cx="99" cy="653" r="4"/><circle cx="110" cy="654" r="4"/><circle cx="122" cy="655" r="4"/><circle cx="133" cy="654" r="4"/><circle cx="95" cy="661" r="4"/><circle cx="109" cy="660" r="5"/><circle cx="118" cy="662" r="6"/><circle cx="131" cy="661" r="5"/><circle cx="98" cy="668" r="5"/><circle cx="123" cy="668" r="5"/><circle cx="114" cy="676" r="4"/><circle cx="435" cy="646" r="6"/><circle cx="445" cy="646" r="5"/><circle cx="456" cy="645" r="4"/><circle cx="466" cy="646" r="4"/><circle cx="475" cy="645" r="4"/><circle cx="484" cy="644" r="5"/><circle cx="494" cy="644" r="6"/><circle cx="505" cy="644" r="6"/><circle cx="514" cy="644" r="4"/><circle cx="445" cy="652" r="5"/><circle cx="457" cy="652" r="5"/><circle cx="469" cy="652" r="4"/><circle cx="479" cy="653" r="4"/><circle cx="489" cy="651" r="5"/><circle cx="500" cy="651" r="6"/><circle cx="513" cy="651" r="5"/><circle cx="449" cy="659" r="5"/><circle cx="459" cy="660" r="6"/><circle cx="470" cy="659" r="6"/><circle cx="481" cy="659" r="4"/><circle cx="491" cy="658" r="4"/><circle cx="500" cy="658" r="6"/><circle cx="460" cy="667" r="5"/><circle cx="473" cy="665" r="5"/><circle cx="487" cy="667" r="5"/><circle cx="499" cy="666" r="6"/><circle cx="461" cy="673" r="5"/><circle cx="475" cy="673" r="5"/><circle cx="489" cy="675" r="5"/><circle cx="479" cy="680" r="5"/><circle cx="219" cy="815" r="5"/><circle cx="231" cy="813" r="5"/><circle cx="240" cy="815" r="6"/><circle cx="250" cy="813" r="5"/><circle cx="258" cy="814" r="5"/><circle cx="271" cy="813" r="6"/><circle cx="278" cy="815" r="6"/><circle cx="287" cy="815" r="5"/><circle cx="231" cy="822" r="5"/><circle cx="244" cy="822" r="4"/><circle cx="253" cy="822" r="4"/><circle cx="265" cy="822" r="4"/><circle cx="276" cy="821" r="6"/><circle cx="287" cy="822" r="5"/><circle cx="235" cy="829" r="4"/><circle cx="249" cy="830" r="5"/><circle cx="263" cy="828" r="6"/><circle cx="276" cy="830" r="5"/><circle cx="247" cy="836" r="4"/><circle cx="258" cy="835" r="4"/><circle cx="271" cy="837" r="6"/><circle cx="255" cy="843" r="6"/></g></svg>